<mxfile host="app.diagrams.net" agent="Mozilla/5.0 (X11; Linux x86_64) AppleWebKit/537.36 (KHTML, like Gecko) Chrome/131.0.0.0 Safari/537.36" version="26.0.3">
  <diagram name="Page-1" id="9pbDQa-Ft3anCS7ZBNj0">
    <mxGraphModel dx="1195" dy="1723" grid="1" gridSize="10" guides="1" tooltips="1" connect="1" arrows="1" fold="1" page="1" pageScale="1" pageWidth="850" pageHeight="1100" math="0" shadow="0">
      <root>
        <mxCell id="0" />
        <mxCell id="1" parent="0" />
        <mxCell id="zdfISdFtuGxaiRP9Du6z-1" value="Quản trị viên" style="shape=umlActor;verticalLabelPosition=bottom;verticalAlign=top;html=1;outlineConnect=0;" vertex="1" parent="1">
          <mxGeometry x="120" y="300" width="30" height="60" as="geometry" />
        </mxCell>
        <mxCell id="zdfISdFtuGxaiRP9Du6z-2" value="Duyệt yêu cầu đăng ký cụm sân" style="ellipse;whiteSpace=wrap;html=1;" vertex="1" parent="1">
          <mxGeometry x="350" y="290" width="120" height="80" as="geometry" />
        </mxCell>
        <mxCell id="zdfISdFtuGxaiRP9Du6z-3" value="" style="endArrow=none;html=1;rounded=0;entryX=0;entryY=0.5;entryDx=0;entryDy=0;" edge="1" parent="1" source="zdfISdFtuGxaiRP9Du6z-1" target="zdfISdFtuGxaiRP9Du6z-2">
          <mxGeometry width="50" height="50" relative="1" as="geometry">
            <mxPoint x="400" y="410" as="sourcePoint" />
            <mxPoint x="450" y="360" as="targetPoint" />
          </mxGeometry>
        </mxCell>
        <mxCell id="zdfISdFtuGxaiRP9Du6z-4" value="Khách hàng" style="shape=umlActor;verticalLabelPosition=bottom;verticalAlign=top;html=1;outlineConnect=0;" vertex="1" parent="1">
          <mxGeometry x="1180" y="120" width="30" height="60" as="geometry" />
        </mxCell>
        <mxCell id="zdfISdFtuGxaiRP9Du6z-8" value="Đặt sân" style="ellipse;whiteSpace=wrap;html=1;" vertex="1" parent="1">
          <mxGeometry x="760" y="80" width="120" height="80" as="geometry" />
        </mxCell>
        <mxCell id="zdfISdFtuGxaiRP9Du6z-9" value="Hủy đặt sân" style="ellipse;whiteSpace=wrap;html=1;" vertex="1" parent="1">
          <mxGeometry x="760" y="170" width="110" height="80" as="geometry" />
        </mxCell>
        <mxCell id="zdfISdFtuGxaiRP9Du6z-12" value="Xem thông tin chi tiết sân" style="ellipse;whiteSpace=wrap;html=1;" vertex="1" parent="1">
          <mxGeometry x="940" y="220" width="80" height="80" as="geometry" />
        </mxCell>
        <mxCell id="zdfISdFtuGxaiRP9Du6z-13" value="Tìm kiếm sân" style="ellipse;whiteSpace=wrap;html=1;" vertex="1" parent="1">
          <mxGeometry x="890" y="30" width="80" height="80" as="geometry" />
        </mxCell>
        <mxCell id="zdfISdFtuGxaiRP9Du6z-15" value="" style="endArrow=none;html=1;rounded=0;exitX=0.958;exitY=0.613;exitDx=0;exitDy=0;exitPerimeter=0;entryX=0;entryY=0.3333333333333333;entryDx=0;entryDy=0;entryPerimeter=0;" edge="1" parent="1" source="zdfISdFtuGxaiRP9Du6z-8" target="zdfISdFtuGxaiRP9Du6z-4">
          <mxGeometry width="50" height="50" relative="1" as="geometry">
            <mxPoint x="540" y="410" as="sourcePoint" />
            <mxPoint x="800" y="320" as="targetPoint" />
          </mxGeometry>
        </mxCell>
        <mxCell id="zdfISdFtuGxaiRP9Du6z-17" value="" style="endArrow=none;html=1;rounded=0;exitX=1;exitY=0.5;exitDx=0;exitDy=0;entryX=0.25;entryY=0.1;entryDx=0;entryDy=0;entryPerimeter=0;" edge="1" parent="1" source="zdfISdFtuGxaiRP9Du6z-13" target="zdfISdFtuGxaiRP9Du6z-4">
          <mxGeometry width="50" height="50" relative="1" as="geometry">
            <mxPoint x="540" y="410" as="sourcePoint" />
            <mxPoint x="590" y="360" as="targetPoint" />
            <Array as="points" />
          </mxGeometry>
        </mxCell>
        <mxCell id="zdfISdFtuGxaiRP9Du6z-18" value="" style="endArrow=none;html=1;rounded=0;" edge="1" parent="1" source="zdfISdFtuGxaiRP9Du6z-12" target="zdfISdFtuGxaiRP9Du6z-4">
          <mxGeometry width="50" height="50" relative="1" as="geometry">
            <mxPoint x="540" y="410" as="sourcePoint" />
            <mxPoint x="590" y="360" as="targetPoint" />
          </mxGeometry>
        </mxCell>
        <mxCell id="zdfISdFtuGxaiRP9Du6z-19" value="" style="endArrow=none;html=1;rounded=0;" edge="1" parent="1" source="zdfISdFtuGxaiRP9Du6z-9" target="zdfISdFtuGxaiRP9Du6z-4">
          <mxGeometry width="50" height="50" relative="1" as="geometry">
            <mxPoint x="540" y="410" as="sourcePoint" />
            <mxPoint x="790" y="250" as="targetPoint" />
          </mxGeometry>
        </mxCell>
        <mxCell id="zdfISdFtuGxaiRP9Du6z-21" value="Chủ sân" style="shape=umlActor;verticalLabelPosition=bottom;verticalAlign=top;html=1;outlineConnect=0;" vertex="1" parent="1">
          <mxGeometry x="170" y="70" width="30" height="60" as="geometry" />
        </mxCell>
        <mxCell id="zdfISdFtuGxaiRP9Du6z-28" value="Quản lý cụm sân" style="ellipse;whiteSpace=wrap;html=1;" vertex="1" parent="1">
          <mxGeometry x="380" y="-30" width="80" height="80" as="geometry" />
        </mxCell>
        <mxCell id="zdfISdFtuGxaiRP9Du6z-29" value="Quản lý đặt sân" style="ellipse;whiteSpace=wrap;html=1;" vertex="1" parent="1">
          <mxGeometry x="385" y="160" width="80" height="80" as="geometry" />
        </mxCell>
        <mxCell id="zdfISdFtuGxaiRP9Du6z-31" value="Xem báo cáo thống kê" style="ellipse;whiteSpace=wrap;html=1;" vertex="1" parent="1">
          <mxGeometry x="390" y="60" width="80" height="80" as="geometry" />
        </mxCell>
        <mxCell id="zdfISdFtuGxaiRP9Du6z-32" value="" style="endArrow=none;html=1;rounded=0;" edge="1" parent="1" source="zdfISdFtuGxaiRP9Du6z-28" target="zdfISdFtuGxaiRP9Du6z-21">
          <mxGeometry width="50" height="50" relative="1" as="geometry">
            <mxPoint x="600" y="380" as="sourcePoint" />
            <mxPoint x="650" y="330" as="targetPoint" />
          </mxGeometry>
        </mxCell>
        <mxCell id="zdfISdFtuGxaiRP9Du6z-33" value="" style="endArrow=none;html=1;rounded=0;" edge="1" parent="1" source="zdfISdFtuGxaiRP9Du6z-31" target="zdfISdFtuGxaiRP9Du6z-21">
          <mxGeometry width="50" height="50" relative="1" as="geometry">
            <mxPoint x="600" y="380" as="sourcePoint" />
            <mxPoint x="650" y="330" as="targetPoint" />
          </mxGeometry>
        </mxCell>
        <mxCell id="zdfISdFtuGxaiRP9Du6z-34" value="" style="endArrow=none;html=1;rounded=0;" edge="1" parent="1" source="zdfISdFtuGxaiRP9Du6z-29" target="zdfISdFtuGxaiRP9Du6z-21">
          <mxGeometry width="50" height="50" relative="1" as="geometry">
            <mxPoint x="600" y="380" as="sourcePoint" />
            <mxPoint x="650" y="330" as="targetPoint" />
          </mxGeometry>
        </mxCell>
        <mxCell id="zdfISdFtuGxaiRP9Du6z-37" value="User" style="shape=umlActor;verticalLabelPosition=bottom;verticalAlign=top;html=1;outlineConnect=0;" vertex="1" parent="1">
          <mxGeometry x="595" y="-200" width="30" height="60" as="geometry" />
        </mxCell>
        <mxCell id="zdfISdFtuGxaiRP9Du6z-38" value="Đăng nhập" style="ellipse;whiteSpace=wrap;html=1;" vertex="1" parent="1">
          <mxGeometry x="680" y="-40" width="80" height="80" as="geometry" />
        </mxCell>
        <mxCell id="zdfISdFtuGxaiRP9Du6z-39" value="Đăng ký" style="ellipse;whiteSpace=wrap;html=1;" vertex="1" parent="1">
          <mxGeometry x="530" y="-90" width="80" height="80" as="geometry" />
        </mxCell>
        <mxCell id="zdfISdFtuGxaiRP9Du6z-40" value="" style="endArrow=none;html=1;rounded=0;" edge="1" parent="1" source="zdfISdFtuGxaiRP9Du6z-39">
          <mxGeometry width="50" height="50" relative="1" as="geometry">
            <mxPoint x="600" y="150" as="sourcePoint" />
            <mxPoint x="590" y="-150" as="targetPoint" />
          </mxGeometry>
        </mxCell>
        <mxCell id="zdfISdFtuGxaiRP9Du6z-42" value="" style="endArrow=none;html=1;rounded=0;" edge="1" parent="1" source="zdfISdFtuGxaiRP9Du6z-38">
          <mxGeometry width="50" height="50" relative="1" as="geometry">
            <mxPoint x="600" y="50" as="sourcePoint" />
            <mxPoint x="630" y="-160" as="targetPoint" />
            <Array as="points">
              <mxPoint x="720" y="-160" />
            </Array>
          </mxGeometry>
        </mxCell>
        <mxCell id="zdfISdFtuGxaiRP9Du6z-44" value="Extends" style="endArrow=block;endSize=16;endFill=0;html=1;rounded=0;" edge="1" parent="1" source="zdfISdFtuGxaiRP9Du6z-21">
          <mxGeometry width="160" relative="1" as="geometry">
            <mxPoint x="420" y="270" as="sourcePoint" />
            <mxPoint x="590" y="-160" as="targetPoint" />
            <Array as="points">
              <mxPoint x="185" y="-160" />
            </Array>
          </mxGeometry>
        </mxCell>
        <mxCell id="zdfISdFtuGxaiRP9Du6z-45" value="Extends" style="endArrow=block;endSize=16;endFill=0;html=1;rounded=0;entryX=0;entryY=0.3333333333333333;entryDx=0;entryDy=0;entryPerimeter=0;" edge="1" parent="1" source="zdfISdFtuGxaiRP9Du6z-1" target="zdfISdFtuGxaiRP9Du6z-37">
          <mxGeometry width="160" relative="1" as="geometry">
            <mxPoint x="420" y="130" as="sourcePoint" />
            <mxPoint x="580" y="130" as="targetPoint" />
            <Array as="points">
              <mxPoint x="130" y="-180" />
            </Array>
          </mxGeometry>
        </mxCell>
        <mxCell id="zdfISdFtuGxaiRP9Du6z-46" value="Extends" style="endArrow=block;endSize=16;endFill=0;html=1;rounded=0;exitX=0.5;exitY=0;exitDx=0;exitDy=0;exitPerimeter=0;" edge="1" parent="1" source="zdfISdFtuGxaiRP9Du6z-4">
          <mxGeometry width="160" relative="1" as="geometry">
            <mxPoint x="420" y="130" as="sourcePoint" />
            <mxPoint x="640" y="-180" as="targetPoint" />
            <Array as="points">
              <mxPoint x="1190" y="-180" />
              <mxPoint x="930" y="-180" />
            </Array>
          </mxGeometry>
        </mxCell>
      </root>
    </mxGraphModel>
  </diagram>
</mxfile>
